# xmcd CD database file
#
# Track frame offsets:
#	150
#	18802
#	38675
#	56580
#	77730
#	92935
#	103370
#	125857
#	150292
#	164050
#	178984
#	199380
#	218507
#
# Disc length: 3232 seconds
#
# Revision: 5
# Processed by: cddbd v1.5.1PL0 Copyright (c) Steve Scherf et al.
# Submitted via: CDex 1.50
#
DISCID=b40c9e0d
DTITLE=Terry Johnson - Dancing On Air
DYEAR=1995
DGENRE=New Age
TTITLE0=Lullaby
TTITLE1=A Love Song
TTITLE2=Romancing The Unknown
TTITLE3=You Are The Moon And Stars
TTITLE4=Rapture
TTITLE5=Eclipse
TTITLE6=Angel's Touch
TTITLE7=Coming Home
TTITLE8=Inner Splendor
TTITLE9=Timeless
TTITLE10=The Waltz
TTITLE11=Moonlit Shores
TTITLE12=Dancing On Air
EXTD=YEAR: 1995
EXTT0=
EXTT1=
EXTT2=
EXTT3=
EXTT4=
EXTT5=
EXTT6=
EXTT7=
EXTT8=
EXTT9=
EXTT10=
EXTT11=
EXTT12=
PLAYORDER=
